<?xml version="1.0" standalone="no"?>
<!DOCTYPE svg PUBLIC "-//W3C//DTD SVG 20010904//EN"
 "http://www.w3.org/TR/2001/REC-SVG-20010904/DTD/svg10.dtd">
<svg version="1.0" xmlns="http://www.w3.org/2000/svg"
 width="1280.000000pt" height="893.000000pt" viewBox="0 0 1280.000000 893.000000"
 preserveAspectRatio="xMidYMid meet">
<metadata>
Created by potrace 1.15, written by Peter Selinger 2001-2017
</metadata>
<g transform="translate(0.000000,893.000000) scale(0.100000,-0.100000)"
fill="#ffd700" stroke="none">
<path d="M6227 8915 c-133 -25 -280 -82 -398 -154 l-31 -19 111 -83 111 -84
25 -77 c14 -42 25 -80 25 -83 0 -3 -38 -5 -84 -5 l-84 0 -81 87 c-45 47 -83
84 -85 82 -27 -32 -95 -145 -125 -210 -60 -130 -75 -202 -75 -359 0 -193 37
-328 153 -557 78 -155 65 -157 150 32 l73 165 64 0 64 0 0 -92 c0 -51 -4 -98
-8 -103 -4 -6 -41 -33 -82 -60 -95 -62 -265 -231 -314 -312 -110 -184 -139
-391 -86 -620 20 -86 81 -252 105 -290 14 -21 13 -22 -28 -27 -23 -3 -82 -8
-132 -11 -657 -43 -1474 -242 -2185 -532 l-155 -63 -23 28 c-131 153 -192 205
-451 388 -188 133 -292 255 -396 467 -35 71 -65 133 -67 138 -2 5 -16 5 -31 1
l-28 -7 1 -242 c1 -274 -9 -393 -51 -643 -17 -96 -41 -240 -55 -320 -14 -80
-27 -203 -31 -275 l-6 -130 -75 -49 c-213 -139 -479 -397 -651 -631 l-44 -60
-191 191 c-279 279 -446 397 -839 595 l-217 109 0 -30 c0 -17 25 -80 56 -142
135 -269 263 -591 454 -1138 93 -269 172 -488 214 -598 33 -85 36 -103 36
-196 0 -248 96 -396 297 -456 l41 -13 357 -689 357 -689 -12 -47 c-6 -26 -11
-90 -11 -142 0 -214 94 -363 262 -414 10 -2 85 -125 169 -273 84 -147 154
-270 156 -272 2 -2 135 21 296 52 1606 309 2673 420 3853 404 1116 -16 2199
-121 3812 -368 117 -18 214 -31 216 -28 2 2 67 141 144 308 l140 305 50 17
c74 25 105 43 152 90 47 47 82 110 101 179 18 65 15 201 -6 280 l-17 67 343
664 c189 365 348 667 353 670 5 4 31 9 58 12 68 8 164 53 199 94 75 86 93 165
88 397 l-3 171 72 200 c83 232 227 643 486 1385 42 118 77 221 79 229 2 8 -9
21 -24 30 -26 15 -28 14 -75 -30 -79 -74 -225 -178 -467 -333 -271 -173 -389
-261 -495 -366 l-80 -79 -43 57 c-61 82 -298 316 -403 400 -49 39 -140 104
-201 144 l-111 73 -6 225 c-6 247 -16 324 -83 658 -61 303 -73 377 -79 517 -3
66 -8 148 -11 183 l-6 62 -63 -105 c-118 -197 -189 -266 -407 -394 -81 -47
-183 -115 -227 -149 -90 -72 -240 -224 -326 -332 -42 -53 -61 -70 -73 -65
-637 258 -1485 456 -2282 532 -67 7 -84 12 -82 23 2 8 14 55 27 103 78 291 46
594 -85 818 -77 130 -211 260 -341 328 -32 18 -60 39 -63 49 -2 9 -7 59 -11
110 l-7 92 70 0 70 0 95 -100 c52 -55 98 -100 100 -100 13 0 102 127 142 203
66 125 89 211 89 337 0 131 -18 203 -84 335 -38 78 -135 223 -174 263 -3 3
-26 -38 -50 -90 -43 -92 -46 -95 -83 -101 -21 -4 -59 -7 -85 -7 l-48 0 0 43
c0 35 12 60 75 157 55 85 71 117 63 127 -20 25 -255 133 -333 153 -106 28
-283 35 -388 15z m-595 -3461 c-6 -111 16 -230 63 -346 6 -15 -2 -14 -67 8
-176 60 -347 78 -478 50 -329 -70 -519 -376 -520 -839 0 -201 30 -321 196
-779 112 -309 172 -508 199 -658 23 -133 31 -360 15 -482 -7 -54 -11 -101 -8
-103 5 -5 137 28 194 48 223 80 388 261 468 512 40 128 57 238 62 420 5 155 8
175 31 223 25 54 58 80 87 69 46 -18 83 -184 71 -317 -38 -437 -292 -833 -650
-1013 -161 -80 -321 -113 -518 -104 -168 7 -280 37 -442 117 -278 136 -497
365 -585 608 -59 162 -77 322 -46 397 18 43 37 44 71 4 53 -64 98 -187 116
-319 55 -411 300 -628 742 -657 l88 -6 -22 54 c-56 142 -81 229 -106 376 -14
83 -17 181 -17 633 -1 525 -1 537 -24 635 -72 304 -181 524 -337 680 -74 74
-155 125 -260 162 -72 25 -93 28 -210 27 -138 0 -239 -20 -327 -65 -22 -11
-41 -19 -43 -17 -1 2 -4 70 -6 152 l-4 149 100 34 c701 238 1442 387 2070 416
33 2 69 4 80 5 19 2 20 -3 17 -74z m1923 46 c691 -40 1292 -155 1795 -342 74
-27 139 -53 143 -58 5 -4 5 -68 0 -143 l-8 -135 -65 40 c-102 61 -181 81 -303
76 -111 -5 -175 -25 -284 -89 -73 -44 -194 -166 -261 -261 -112 -163 -206
-395 -251 -618 -26 -130 -29 -248 -17 -740 7 -325 6 -390 -8 -490 -18 -131
-53 -266 -95 -375 l-29 -75 42 0 c67 0 224 29 305 56 121 41 189 82 277 169
116 116 169 234 194 433 19 150 70 293 124 347 33 33 42 32 63 -7 20 -40 23
-167 4 -248 -57 -248 -169 -434 -361 -597 -374 -320 -826 -396 -1224 -205
-334 161 -563 479 -647 900 -30 148 -25 307 11 372 47 84 111 78 162 -15 25
-46 28 -59 28 -162 1 -607 152 -852 579 -938 45 -10 84 -15 85 -14 2 2 -3 45
-10 94 -16 110 -17 212 -4 330 25 229 82 409 273 860 71 169 133 360 152 470
40 229 0 511 -101 705 -75 147 -186 243 -341 297 -68 23 -93 27 -198 27 -129
0 -229 -19 -358 -68 -37 -14 -67 -24 -67 -23 0 1 9 26 20 54 33 87 52 218 44
306 l-6 77 83 0 c46 0 161 -5 254 -10z m3242 -1045 c140 -106 297 -241 384
-331 87 -92 169 -186 169 -196 0 -4 -22 -8 -48 -8 -101 0 -188 -52 -259 -154
-30 -44 -34 -47 -28 -21 3 17 9 85 12 152 5 107 3 129 -17 190 -49 155 -152
255 -315 305 -38 12 -72 24 -74 25 -5 4 51 123 57 123 3 0 56 -38 119 -85z
m-8527 -25 c11 -21 20 -42 20 -45 0 -2 -30 -18 -66 -35 -195 -88 -308 -229
-333 -411 -10 -71 -4 -183 14 -265 6 -26 3 -24 -23 16 -62 96 -140 146 -245
158 l-59 7 174 170 c134 132 482 444 495 445 2 0 12 -18 23 -40z m-118 -1387
c18 -38 114 -189 214 -338 292 -437 336 -529 353 -743 l6 -83 77 51 c137 90
211 200 244 360 28 138 12 288 -55 520 -18 62 -31 127 -31 160 l1 55 27 -32
c37 -43 110 -215 139 -328 17 -68 23 -117 23 -200 0 -131 -14 -190 -72 -305
-35 -69 -61 -103 -143 -185 -122 -123 -192 -171 -257 -178 l-48 -5 -64 87
c-184 249 -264 440 -366 879 -28 123 -60 252 -69 288 -10 35 -17 64 -15 64 2
0 18 -30 36 -67z m7843 20 c-4 -21 -13 -50 -22 -66 -20 -39 -59 -162 -89 -282
-31 -122 -42 -303 -25 -387 32 -153 147 -280 332 -366 4 -2 10 37 14 85 16
194 75 318 341 715 108 161 198 295 200 297 3 3 -2 -15 -11 -38 -31 -90 -106
-396 -165 -676 -33 -159 -67 -316 -74 -348 l-14 -58 36 7 c60 11 193 55 244
80 25 13 74 49 107 80 60 55 94 104 205 299 49 85 88 150 135 225 26 42 -15
-81 -63 -188 -82 -183 -147 -284 -245 -382 -96 -96 -164 -137 -286 -172 -69
-19 -102 -22 -235 -22 -177 1 -199 6 -322 81 -343 207 -408 546 -192 999 59
124 145 202 129 117z m-8279 -545 c14 -29 32 -60 40 -68 7 -8 49 -84 94 -169
44 -84 93 -172 110 -195 39 -57 128 -137 193 -175 68 -39 213 -87 318 -106
l84 -15 -100 5 c-119 5 -194 24 -293 72 -93 46 -213 156 -283 261 -92 138
-226 442 -194 442 2 0 17 -24 31 -52z"/>
</g>
</svg>
